<?xml version="1.0" encoding="utf-8"?>
<!-- Generator: Adobe Illustrator 16.0.0, SVG Export Plug-In . SVG Version: 6.00 Build 0)  -->
<!DOCTYPE svg PUBLIC "-//W3C//DTD SVG 1.1//EN" "http://www.w3.org/Graphics/SVG/1.1/DTD/svg11.dtd">
<svg version="1.1" id="Слой_1" xmlns="http://www.w3.org/2000/svg" xmlns:xlink="http://www.w3.org/1999/xlink" x="0px" y="0px"
	 width="503.475px" height="503.475px" viewBox="0 0 503.475 503.475" enable-background="new 0 0 503.475 503.475"
	 xml:space="preserve">
<rect x="0.5" y="0.5" fill="#1B2C39" stroke="#000000" stroke-miterlimit="10" width="502.475" height="502.475"/>
<g>
	<g>
		<path fill="#FFFFFF" d="M251.366,93.378c-87.415,0-158.27,71.256-158.27,159.166c0,87.911,70.854,159.166,158.27,159.166
			c87.421,0,158.281-71.255,158.281-159.166C409.647,164.634,338.787,93.378,251.366,93.378z M251.366,372.725
			c-66.001,0-119.501-53.804-119.501-120.181c0-66.378,53.5-120.183,119.501-120.183c66.007,0,119.513,53.805,119.513,120.183
			C370.879,318.921,317.373,372.725,251.366,372.725z M343.182,213.602c-9.478-6.977-41.963,8.842-65.481,22.065l-0.179-0.047
			c-7.551-2.643-17.194-7.646-26.312-13.361c-2.756-1.753-5.428-3.522-7.902-5.231c-3.037-2.122-5.925-4.269-8.514-6.373
			c-10.893-8.837-8.536-18.521,1.829-25.265c11.132-7.24,24.235-12.685,43.588-19.633c5.907-2.116,8.639-4.794,7.078-7.55
			c-0.095-0.197-0.202-0.389-0.345-0.594h0.017l-0.096-0.101c-0.246-0.328-0.563-0.651-0.944-0.974
			c-3.688-3.432-11.521-6.911-25.21-7.307c-5.304-0.376-17.584,0.306-33.575,4.795c-29.712,8.334-58.665,31.13-59.328,40.013
			c-0.896,11.976,30.656,31.812,54.391,44.909c0.939,5.268,1.213,12.143,1.094,19.25c-0.012,0.508-0.012,1.016-0.024,1.524
			c-0.007,0.145-0.012,0.287-0.018,0.43c-0.287,9.896-1.297,19.992-2.308,26.652c-2.11,13.924-11.921,16.529-22.831,10.713
			c-11.711-6.247-22.825-15.095-38.297-28.695c-4.938-4.353-8.8-5.537-10.307-2.314l0.012,0.013l-0.077,0.143l-0.006-0.013
			l-0.048,0.133c-0.167,0.377-0.292,0.813-0.395,1.304c-1.184,4.907-0.406,13.485,5.9,25.713
			c2.248,4.842,8.806,15.304,20.475,27.183c21.679,22.065,55.551,36.442,63.593,32.72c10.845-5.027,12.763-42.398,12.619-69.631
			l0.072-0.059c0.514-0.419,1.058-0.844,1.614-1.267c0.286-0.216,0.586-0.432,0.885-0.646c0.227-0.167,0.465-0.335,0.699-0.508
			c8.938-6.331,22.556-12.974,32.761-17.266c0.298-0.126,0.598-0.251,0.89-0.37c0.335-0.145,0.677-0.281,1.005-0.418
			c0.629-0.257,1.243-0.504,1.842-0.742c0.186-0.072,0.364-0.144,0.55-0.215c0.657-0.259,1.304-0.51,1.913-0.736
			c13.11-4.932,20.16,2.403,20.429,14.821c0.287,13.33-1.973,27.403-6.248,47.616c-1.363,6.456-0.509,10.533,3.019,10.288
			l-0.005,0.013l0.138-0.024c0.406-0.042,0.849-0.138,1.32-0.293c4.843-1.338,11.921-6.188,19.483-17.671
			c3.121-4.322,9.028-15.167,13.685-31.202C354.282,255.623,350.33,218.855,343.182,213.602z"/>
	</g>
</g>
</svg>
